<?xml version="1.0" encoding="UTF-8" standalone="no"?>
<!-- Created with Inkscape (http://www.inkscape.org/) -->

<svg
   xmlns:dc="http://purl.org/dc/elements/1.1/"
   xmlns:cc="http://creativecommons.org/ns#"
   xmlns:rdf="http://www.w3.org/1999/02/22-rdf-syntax-ns#"
   xmlns:svg="http://www.w3.org/2000/svg"
   xmlns="http://www.w3.org/2000/svg"
   xmlns:sodipodi="http://sodipodi.sourceforge.net/DTD/sodipodi-0.dtd"
   xmlns:inkscape="http://www.inkscape.org/namespaces/inkscape"
   id="svg3379"
   version="1.1"
   inkscape:version="0.91 r13725"
   xml:space="preserve"
   width="153.59981"
   height="51.19994"
   viewBox="0 0 153.5998 51.199942"
   sodipodi:docname="letterlogo.svg"><metadata
     id="metadata3385"><rdf:RDF><cc:Work
         rdf:about=""><dc:format>image/svg+xml</dc:format><dc:type
           rdf:resource="http://purl.org/dc/dcmitype/StillImage" /><dc:title></dc:title></cc:Work></rdf:RDF></metadata><defs
     id="defs3383" /><sodipodi:namedview
     pagecolor="#ffffff"
     bordercolor="#666666"
     borderopacity="1"
     objecttolerance="10"
     gridtolerance="10"
     guidetolerance="10"
     inkscape:pageopacity="0"
     inkscape:pageshadow="2"
     inkscape:window-width="1858"
     inkscape:window-height="1177"
     id="namedview3381"
     showgrid="false"
     fit-margin-top="0"
     fit-margin-left="0"
     fit-margin-right="0"
     fit-margin-bottom="0"
     inkscape:zoom="2"
     inkscape:cx="213.72778"
     inkscape:cy="119.79799"
     inkscape:window-x="1912"
     inkscape:window-y="-8"
     inkscape:window-maximized="1"
     inkscape:current-layer="g3387" /><g
     id="g3387"
     inkscape:groupmode="layer"
     inkscape:label="ink_ext_XXXXXX"
     transform="matrix(1.25,0,0,-1.25,-923.199,358.93293)"><g
       id="g3407"
       transform="matrix(0,-0.0768,0.0768,0,779.51915,328.1063)"
       style=""><g
         transform="matrix(0,0.109066,-0.109066,0,1066.6655,-533.33274)"
         id="g3389"><path
           inkscape:connector-curvature="0"
           id="path3391"
           style="fill:#e32124;fill-opacity:0;fill-rule:nonzero;stroke:none"
           d="m 0,0 14670,0 0,4890 L 0,4890 0,0 Z" /><path
           inkscape:connector-curvature="0"
           id="path3393"
           style="fill:#ffffff;fill-opacity:1;fill-rule:nonzero;stroke:none"
           d="m 6391.03,3241.96 c -216.64,0 -463.07,-100.43 -613.66,-301.52 l 0.12,0.35 -0.12,-0.13 0.12,269.77 -516.88,0 0,-1882.08 516.76,0 0,1070.87 c 0,192.77 149.4,397.62 426.08,397.62 213.86,0 435.11,-148.7 435.11,-397.62 l 0,-1070.87 516.81,0 0,1166.69 c 0,432.79 -309.65,746.92 -764.34,746.92" /><path
           inkscape:connector-curvature="0"
           id="path3395"
           style="fill:#ffffff;fill-opacity:1;fill-rule:nonzero;stroke:none"
           d="m 10828.5,3210.29 -467.3,-1282.04 -467.2,1282.04 -590.29,0 774.39,-1881.38 566.3,0 774.4,1881.38 -590.3,0" /><path
           inkscape:connector-curvature="0"
           id="path3397"
           style="fill:#ffffff;fill-opacity:1;fill-rule:nonzero;stroke:none"
           d="m 3717.77,2643.32 c 88,118.14 228.22,187.5 397.52,187.5 186.26,0 327.56,-106.36 400.56,-263.28 l -902.86,-374.57 c -24.71,192.16 24.48,342.53 104.78,450.35 z m 992.89,-736.35 c -217.55,-160.94 -341.82,-199.41 -540.16,-199.41 -178.52,0 -318.23,55.42 -416.79,152.63 l 1321.22,548.13 c -28.8,204.28 -106.3,386.67 -225.63,525.41 -173.58,201.67 -430.54,308.31 -743.32,308.31 -568.29,0 -996.81,-419.25 -996.81,-972.93 0,-568 429.47,-972.77 1053.69,-972.77 349.73,0 707.32,165.77 874.55,359.39 l -326.75,251.24" /><path
           inkscape:connector-curvature="0"
           id="path3399"
           style="fill:#ffffff;fill-opacity:1;fill-rule:nonzero;stroke:none"
           d="m 3059.91,1802.86 -1174.64,0 0,1970.33 -523.77,0 0,-2444.84 1698.41,0 0,474.51" /><path
           inkscape:connector-curvature="0"
           id="path3401"
           style="fill:#ffffff;fill-opacity:1;fill-rule:nonzero;stroke:none"
           d="m 12346.7,2799.18 c -288.6,0 -498.1,-218.7 -498.1,-529.89 0,-297.07 222,-529.83 505.1,-529.83 288.6,0 498.1,224.74 498.1,529.83 0,297.13 -221.8,529.89 -505.1,529.89 m 0,-1502.56 c -565.2,0 -1008,421.06 -1008,972.67 0,545.44 445.9,972.75 1015,972.75 565.2,0 1007.9,-421.05 1007.9,-972.75 0,-545.33 -445.8,-972.67 -1014.9,-972.67" /><path
           inkscape:connector-curvature="0"
           id="path3403"
           style="fill:#ffffff;fill-opacity:1;fill-rule:nonzero;stroke:none"
           d="m 8367.8,2799.18 c -288.64,0 -498.09,-218.7 -498.09,-529.89 0,-297.07 221.92,-529.83 505.08,-529.83 288.64,0 498.16,224.74 498.16,529.83 0,297.13 -221.93,529.89 -505.15,529.89 m 0,-1502.56 c -565.19,0 -1007.98,421.06 -1007.98,972.67 0,545.44 445.84,972.75 1014.97,972.75 565.15,0 1007.96,-421.05 1007.96,-972.75 0,-545.33 -445.84,-972.67 -1014.95,-972.67" /><path
           inkscape:connector-curvature="0"
           id="path3405"
           style="fill:#ffffff;fill-opacity:1;fill-rule:nonzero;stroke:none"
           d="m 13625.8,1599.3 55.4,0 81.8,-128.43 81.8,128.43 53.7,0 0,-270.95 -50.1,0 0,192.67 -83.6,-130.23 -5.3,0 -83.6,130.23 0,-192.67 -50.1,0 0,270.95 z m -193.6,-47.51 -83.5,0 0,47.51 219,0 0,-47.51 -83.6,0 0,-223.44 -51.9,0 0,223.44" /></g></g></g></svg>